name ./resultDataOpenSim/trcMotMarkerGrf/sub06/grf-12-07.mot
datacolumns 19
datarows 22
range 1.00400000 1.08800000
endheader

                time	     ground_force_vx	     ground_force_vy	     ground_force_vz	     ground_force_px	     ground_force_py	     ground_force_pz	   l_ground_force_vx	   l_ground_force_vy	   l_ground_force_vz	   l_ground_force_px	   l_ground_force_py	   l_ground_force_pz	     ground_torque_x	     ground_torque_y	     ground_torque_z	   l_ground_torque_x	   l_ground_torque_y	   l_ground_torque_z	
          1.00400000	          0.00000000	          0.00000000	          0.00000000	          0.00000000	          0.00000000	          0.00000000	        122.79266829	        725.57188314	         37.74849826	          0.01373821	         -0.02500300	         -0.05918020	          0.00000000	          0.00000000	          0.00000000	          0.00000000	         -3.07816344	          0.00000000	
          1.00800000	          0.00000000	          0.00000000	          0.00000000	          0.00000000	          0.00000000	          0.00000000	        130.13335169	        736.79938955	         37.20655935	          0.01442519	         -0.02500300	         -0.05864317	          0.00000000	          0.00000000	          0.00000000	          0.00000000	         -3.24222728	          0.00000000	
          1.01200000	          0.00000000	          0.00000000	          0.00000000	          0.00000000	          0.00000000	          0.00000000	        137.44750199	        746.24265777	         36.34275149	          0.01512338	         -0.02500300	         -0.05811080	          0.00000000	          0.00000000	          0.00000000	          0.00000000	         -3.40870792	          0.00000000	
          1.01600000	          0.00000000	          0.00000000	          0.00000000	          0.00000000	          0.00000000	          0.00000000	        144.66372267	        753.88751570	         35.23963259	          0.01578574	         -0.02500216	         -0.05761093	          0.00000000	          0.00000000	          0.00000000	          0.00000000	         -3.57098194	          0.00000000	
          1.02000000	          0.00000000	          0.00000000	          0.00000000	          0.00000000	          0.00000000	          0.00000000	        151.74599967	        759.67870036	         33.98488810	          0.01640933	         -0.02500200	         -0.05715142	          0.00000000	          0.00000000	          0.00000000	          0.00000000	         -3.72225724	          0.00000000	
          1.02400000	          0.00000000	          0.00000000	          0.00000000	          0.00000000	          0.00000000	          0.00000000	        158.67216626	        763.49551788	         32.65180875	          0.01704295	         -0.02500200	         -0.05671970	          0.00000000	          0.00000000	          0.00000000	          0.00000000	         -3.85622696	          0.00000000	
          1.02800000	          0.00000000	          0.00000000	          0.00000000	          0.00000000	          0.00000000	          0.00000000	        165.41200004	        765.19207412	         31.28527745	          0.01773431	         -0.02500200	         -0.05629432	          0.00000000	          0.00000000	          0.00000000	          0.00000000	         -3.96736310	          0.00000000	
          1.03200000	          0.00000000	          0.00000000	          0.00000000	          0.00000000	          0.00000000	          0.00000000	        171.92403433	        764.64567844	         29.89478038	          0.01849120	         -0.02500132	         -0.05586450	          0.00000000	          0.00000000	          0.00000000	          0.00000000	         -4.05092835	          0.00000000	
          1.03600000	          0.00000000	          0.00000000	          0.00000000	          0.00000000	          0.00000000	          0.00000000	        178.16877498	        761.74750551	         28.46193892	          0.01929773	         -0.02500100	         -0.05543415	          0.00000000	          0.00000000	          0.00000000	          0.00000000	         -4.10297436	          0.00000000	
          1.04000000	          0.00000000	          0.00000000	          0.00000000	          0.00000000	          0.00000000	          0.00000000	        184.11231526	        756.36975347	         26.96593728	          0.02013864	         -0.02500100	         -0.05501262	          0.00000000	          0.00000000	          0.00000000	          0.00000000	         -4.12053441	          0.00000000	
          1.04400000	          0.00000000	          0.00000000	          0.00000000	          0.00000000	          0.00000000	          0.00000000	        189.71222106	        748.39388508	         25.40643326	          0.02101058	         -0.02500044	         -0.05460469	          0.00000000	          0.00000000	          0.00000000	          0.00000000	         -4.10199161	          0.00000000	
          1.04800000	          0.00000000	          0.00000000	          0.00000000	          0.00000000	          0.00000000	          0.00000000	        194.90534631	        737.75148320	         23.80128548	          0.02191630	         -0.02499948	         -0.05420876	          0.00000000	          0.00000000	          0.00000000	          0.00000000	         -4.04740890	          0.00000000	
          1.05200000	          0.00000000	          0.00000000	          0.00000000	          0.00000000	          0.00000000	          0.00000000	        199.60273276	        724.38493099	         22.16390740	          0.02284853	         -0.02499900	         -0.05382364	          0.00000000	          0.00000000	          0.00000000	          0.00000000	         -3.95856814	          0.00000000	
          1.05600000	          0.00000000	          0.00000000	          0.00000000	          0.00000000	          0.00000000	          0.00000000	        203.67490491	        708.17797870	         20.48827396	          0.02379226	         -0.02499900	         -0.05344461	          0.00000000	          0.00000000	          0.00000000	          0.00000000	         -3.83857709	          0.00000000	
          1.06000000	          0.00000000	          0.00000000	          0.00000000	          0.00000000	          0.00000000	          0.00000000	        206.92478904	        688.93819922	         18.75653563	          0.02473490	         -0.02499860	         -0.05305798	          0.00000000	          0.00000000	          0.00000000	          0.00000000	         -3.69107848	          0.00000000	
          1.06400000	         -2.42507841	         10.55900585	          3.86437668	          0.63356259	          0.00000000	          0.05659726	        209.07184922	        666.39985553	         16.95290960	          0.02567345	         -0.02499764	         -0.05265281	          0.00000000	          0.68099495	          0.00000000	          0.00000000	         -3.51927531	          0.00000000	
          1.06800000	        -11.29551708	        137.87204818	         13.65944489	          0.63933035	          0.00000000	          0.05538336	        209.76718390	        640.19949425	         15.06781983	          0.02662518	         -0.02499700	         -0.05223301	          0.00000000	          0.52514940	          0.00000000	          0.00000000	         -3.32513584	          0.00000000	
          1.07200000	        -20.38013587	        255.29217052	         23.14662687	          0.64411802	          0.00000000	          0.05443516	        208.63145870	        609.86633275	         13.10422598	          0.02762351	         -0.02499672	         -0.05181234	          0.00000000	          0.30426781	          0.00000000	          0.00000000	         -3.10916762	          0.00000000	
          1.07600000	        -30.40102393	        353.52224748	         31.67176057	          0.64842071	          0.00000000	          0.05381734	        205.30405700	        574.90002677	         11.09477232	          0.02869972	         -0.02499600	         -0.05140735	          0.00000000	         -0.01282808	          0.00000000	          0.00000000	         -2.87100236	          0.00000000	
          1.08000000	        -42.17256550	        427.60235785	         38.22131513	          0.65178701	          0.00000000	          0.05386263	        199.48638831	        534.95449913	          9.10405087	          0.02987215	         -0.02499580	         -0.05105246	          0.00000000	         -0.42602486	          0.00000000	          0.00000000	         -2.61077271	          0.00000000	
          1.08400000	        -55.98740250	        479.42333217	         41.74181276	          0.65412886	          0.00000000	          0.05470784	        190.93623626	        490.09868854	          7.19578372	          0.03114105	         -0.02499471	         -0.05080717	          0.00000000	         -0.89646244	          0.00000000	          0.00000000	         -2.33090179	          0.00000000	
          1.08800000	        -71.54342609	        516.20767837	         41.60188462	          0.65654103	          0.00000000	          0.05607004	        179.42744294	        441.05548131	          5.39664995	          0.03253159	         -0.02499303	         -0.05070611	          0.00000000	         -1.35029016	          0.00000000	          0.00000000	         -2.03749108	          0.00000000	
